<svg width="24" height="24" viewBox="0 0 24 24" fill="none" xmlns="http://www.w3.org/2000/svg">
<path d="M20.224 12.526C19.638 9.405 19.346 7.844 18.234 6.922C17.125 6 15.537 6 12.362 6H11.64C8.465 6 6.877 6 5.766 6.922C4.656 7.844 4.363 9.405 3.777 12.526C2.955 16.915 2.543 19.109 3.743 20.555C4.942 22 7.174 22 11.639 22H12.361C16.826 22 19.059 22 20.258 20.555C20.954 19.715 21.108 18.625 20.954 17M9 6V5C9 4.20435 9.31607 3.44129 9.87868 2.87868C10.4413 2.31607 11.2044 2 12 2C12.7957 2 13.5587 2.31607 14.1213 2.87868C14.6839 3.44129 15 4.20435 15 5V6" stroke="white" stroke-width="1.5" stroke-linecap="round"/>
</svg>
